<?xml version="1.0" encoding="UTF-8" standalone="no"?><!DOCTYPE svg PUBLIC "-//W3C//DTD SVG 1.1//EN" "http://www.w3.org/Graphics/SVG/1.1/DTD/svg11.dtd"><svg width="100%" height="100%" viewBox="0 0 2185 320" version="1.1" xmlns="http://www.w3.org/2000/svg" xmlns:xlink="http://www.w3.org/1999/xlink" xml:space="preserve" xmlns:serif="http://www.serif.com/" style="fill-rule:evenodd;clip-rule:evenodd;stroke-linejoin:round;stroke-miterlimit:2;"><g id="Text"><path d="M0,42.358l0,-29.467l166.562,-0l0,29.467l-67.936,-0l0,273.98l-30.897,0l-0,-273.98l-67.729,-0Z" style="fill-rule:nonzero;"/><path d="M209.938,12.891l173.929,-0l-0,29.874l-143.642,0l-0,94.955l87.576,0l-0,29.457l-87.576,0l-0,119.079l142.414,-0l-0,30.082l-172.701,0l-0,-303.447Z" style="fill-rule:nonzero;"/><path d="M726.401,71.002l-24.143,18.007c-13.098,-17.187 -28.887,-30.182 -47.369,-38.98c-18.49,-8.799 -38.777,-13.198 -60.875,-13.198c-24.283,0 -46.726,5.799 -67.321,17.395c-20.6,11.595 -36.596,27.178 -47.986,46.753c-11.388,19.587 -17.084,41.642 -17.084,66.198c-0,36.959 12.688,66.744 38.059,89.322c25.373,22.58 57.361,33.858 95.968,33.858c42.56,-0 78.093,-16.654 106.608,-49.937l24.143,18.229c-15.141,19.23 -34.036,34.108 -56.679,44.611c-22.647,10.502 -47.881,15.754 -75.708,15.754c-53.202,-0 -95.15,-17.68 -125.842,-53.013c-25.649,-29.855 -38.472,-63.69 -38.472,-101.474c0,-44.336 15.586,-81.725 46.759,-112.142c31.167,-30.42 70.152,-45.634 116.94,-45.634c28.372,0 53.983,5.63 76.836,16.882c22.848,11.253 41.57,27.047 56.166,47.369Z" style="fill-rule:nonzero;"/><path d="M786.36,12.891l30.493,-0l-0,127.28l154.486,-0l0,-127.28l30.283,-0l-0,303.447l-30.283,0l0,-146.285l-154.486,0l-0,146.285l-30.493,0l0,-303.447Z" style="fill-rule:nonzero;"/><path d="M1080.19,-0c6.552,-0 12.178,2.321 16.879,6.957c4.727,4.641 7.052,10.23 7.052,16.779c0,6.549 -2.325,12.175 -7.052,16.881c-4.701,4.706 -10.327,7.059 -16.879,7.059c-6.551,0 -12.152,-2.353 -16.779,-7.059c-4.626,-4.706 -6.951,-10.332 -6.951,-16.881c-0,-6.549 2.325,-12.138 6.951,-16.779c4.627,-4.636 10.228,-6.957 16.779,-6.957Z"/><rect x="1065.86" y="92.282" width="28.857" height="224.481" style="fill-rule:nonzero;"/><path d="M1159.18,316.338l0,-303.447l6.552,-0l201.748,232.255l0,-232.255l29.882,-0l0,303.447l-6.976,0l-199.698,-229.375l-0,229.375l-31.508,0Z" style="fill-rule:nonzero;"/><path d="M1471.01,12.891l173.941,-0l0,29.874l-143.659,0l0,94.955l87.596,0l0,29.457l-87.596,0l0,119.079l142.434,-0l-0,30.082l-172.716,0l-0,-303.447Z" style="fill-rule:nonzero;"/><path d="M1987.48,71.002l-24.131,18.007c-13.103,-17.187 -28.907,-30.182 -47.386,-38.98c-18.479,-8.799 -38.784,-13.198 -60.864,-13.198c-24.281,0 -46.736,5.799 -67.317,17.395c-20.605,11.595 -36.608,27.178 -47.986,46.753c-11.403,19.587 -17.104,41.642 -17.104,66.198c0,36.959 12.703,66.744 38.059,89.322c25.381,22.58 57.364,33.858 95.973,33.858c42.56,-0 78.094,-16.654 106.625,-49.937l24.131,18.229c-15.153,19.23 -34.033,34.108 -56.688,44.611c-22.631,10.502 -47.862,15.754 -75.693,15.754c-53.213,-0 -95.148,-17.68 -125.855,-53.013c-25.632,-29.855 -38.46,-63.69 -38.46,-101.474c0,-44.336 15.579,-81.725 46.761,-112.142c31.158,-30.42 70.142,-45.634 116.928,-45.634c28.382,0 53.988,5.63 76.844,16.882c22.855,11.253 41.56,27.047 56.163,47.369Z" style="fill-rule:nonzero;"/><path d="M2017.96,42.358l0,-29.467l166.565,-0l0,29.467l-67.941,-0l-0,273.98l-30.882,0l-0,-273.98l-67.742,-0Z" style="fill-rule:nonzero;"/></g></svg>